<?xml version="1.0" standalone="no"?>
<!DOCTYPE svg PUBLIC "-//W3C//DTD SVG 20010904//EN"
 "http://www.w3.org/TR/2001/REC-SVG-20010904/DTD/svg10.dtd">
<svg version="1.0" xmlns="http://www.w3.org/2000/svg"
 width="840.000000pt" height="552.000000pt" viewBox="0 0 840.000000 552.000000"
 preserveAspectRatio="xMidYMid meet">

<g transform="translate(0.000000,552.000000) scale(0.100000,-0.100000)"
fill="#000000" stroke="none">
<path d="M4275 5035 c-11 -35 -23 -56 -35 -60 -10 -3 -22 -15 -25 -26 -9 -26
-24 -24 -35 6 -19 51 -51 21 -48 -45 0 -14 -16 -69 -36 -123 l-36 -98 29 -30
c16 -16 37 -29 46 -29 14 0 16 -6 10 -37 -4 -21 -8 -39 -9 -40 -1 -2 -16 1
-34 6 -52 15 -64 9 -77 -42 -7 -26 -20 -55 -29 -66 -20 -22 -56 -117 -56 -147
0 -12 -9 -49 -20 -83 -12 -37 -20 -94 -21 -144 -2 -119 -1 -134 17 -151 8 -9
23 -62 34 -123 21 -123 32 -158 96 -296 l45 -99 -73 -77 c-40 -42 -95 -101
-123 -131 -27 -30 -86 -89 -129 -130 -83 -78 -153 -175 -163 -223 -4 -18 -28
-47 -65 -80 l-60 -52 5 -73 c2 -40 9 -78 14 -83 12 -12 65 -1 57 12 -3 5 -10
7 -15 4 -5 -4 -9 -1 -9 5 0 7 7 10 15 6 8 -3 20 0 27 7 7 7 29 21 48 30 19 10
42 21 50 26 8 4 24 12 35 18 11 6 20 16 20 23 0 8 22 24 48 37 26 14 71 46 99
74 28 27 54 49 58 49 4 0 15 9 25 20 10 11 28 20 39 20 40 0 68 13 76 35 5 12
26 30 47 40 50 24 113 75 113 91 0 8 12 16 28 19 15 4 40 13 55 21 27 15 29
15 96 -45 38 -34 74 -61 81 -61 6 0 32 -21 56 -46 33 -33 43 -51 39 -65 -4
-11 -2 -19 4 -19 6 0 11 6 11 14 0 21 47 17 53 -5 3 -13 11 -16 26 -12 15 4
21 1 19 -8 -2 -9 5 -13 20 -12 27 3 29 -13 2 -20 -11 -3 -20 -12 -20 -21 0
-10 -9 -16 -22 -16 -20 -1 -18 -3 11 -19 l34 -18 -32 -6 c-31 -7 -44 -27 -16
-27 8 0 15 -4 15 -10 0 -5 7 -10 15 -10 29 0 14 -19 -23 -29 -21 -6 -52 -21
-70 -35 -27 -19 -30 -25 -16 -30 12 -4 13 -10 6 -19 -8 -9 -5 -19 8 -37 l20
-25 0 38 c0 20 5 37 10 37 6 0 10 -20 10 -44 0 -55 -13 -55 -65 2 -39 44 -73
68 -82 58 -3 -3 7 -17 23 -31 20 -19 23 -24 8 -19 -16 7 -17 5 -6 -8 10 -12
10 -18 -1 -27 -11 -8 -20 -6 -40 9 -26 21 -53 27 -42 10 4 -6 -1 -7 -11 -3
-14 5 -16 3 -10 -12 4 -11 4 -16 0 -12 -13 13 -64 -52 -64 -82 0 -32 -22 -52
-135 -120 -66 -40 -74 -42 -140 -40 l-70 2 -28 -64 c-16 -35 -35 -83 -42 -107
l-13 -42 46 -54 c26 -30 90 -91 141 -137 52 -46 127 -114 166 -151 40 -36 94
-77 122 -91 27 -14 55 -33 62 -41 8 -9 21 -16 30 -16 25 0 77 87 101 167 12
40 28 77 36 84 16 13 19 33 3 23 -8 -5 -8 -1 0 14 6 11 11 30 11 41 0 12 4 21
10 21 5 0 33 31 61 70 l51 70 49 -54 c52 -57 100 -86 143 -86 15 0 38 -8 52
-17 14 -9 44 -20 67 -24 23 -4 69 -19 102 -33 65 -28 121 -33 171 -14 25 9 45
9 89 -1 l57 -13 -4 -76 c-3 -74 -2 -77 20 -80 38 -6 52 15 52 74 0 29 4 55 8
58 10 6 76 -23 133 -60 24 -15 46 -29 49 -29 3 -1 20 -9 38 -19 19 -9 35 -16
37 -14 2 2 -14 23 -36 46 -21 24 -39 45 -39 48 0 2 14 -3 31 -11 17 -9 33 -14
36 -12 2 3 29 -6 59 -19 62 -27 64 -28 64 -14 0 6 -8 13 -17 17 -18 6 -133 83
-133 89 0 1 46 3 102 3 56 1 104 3 106 6 11 10 -10 19 -61 27 -104 15 -127 20
-127 29 0 12 69 29 123 29 35 0 47 4 45 13 -3 8 -43 16 -111 22 -58 6 -111 15
-118 22 -7 7 -8 20 -3 34 9 29 6 88 -7 109 -7 12 -10 11 -15 -7 -4 -14 -35
-38 -87 -68 -77 -43 -115 -53 -110 -27 2 6 -16 16 -40 23 -23 6 -69 18 -102
27 -33 9 -73 26 -88 39 -16 13 -37 23 -47 23 -10 0 -32 11 -48 25 -17 14 -42
25 -56 25 -14 0 -26 5 -26 10 0 6 -8 10 -17 10 -10 0 -26 7 -35 14 -20 15 -68
82 -68 95 0 5 -15 24 -32 42 -75 78 -81 111 -32 196 13 23 24 52 24 65 0 49
-32 119 -66 146 -19 15 -50 50 -68 77 -30 44 -35 60 -39 130 -3 44 -11 102
-17 128 l-13 48 -21 -20 c-12 -11 -30 -18 -41 -16 -11 2 -23 4 -27 4 -17 2 6
30 33 41 57 24 109 111 78 131 -12 8 -11 12 4 23 9 7 17 23 17 35 0 27 27 28
35 1 8 -24 30 -26 39 -4 8 22 8 26 -4 19 -5 -3 -10 -1 -10 4 0 6 9 11 19 11
16 0 21 10 27 56 16 130 -89 226 -233 211 -63 -7 -95 -27 -134 -84 l-31 -44
-39 36 c-21 19 -46 35 -54 35 -39 0 -135 123 -135 173 0 35 -55 150 -76 159
-19 9 -20 14 -11 39 10 24 8 32 -10 51 -20 21 -21 28 -12 98 5 41 8 93 7 116
-1 22 2 45 6 52 4 6 9 54 11 107 2 53 7 112 11 131 4 22 2 34 -5 34 -37 0 17
101 91 169 57 53 58 54 78 36 11 -10 20 -27 20 -37 0 -45 75 -154 144 -209 85
-68 162 -47 187 50 7 28 17 49 22 48 6 -1 16 9 24 23 7 14 17 24 23 23 22 -6
22 68 0 138 -24 75 -51 104 -122 134 -20 8 -39 19 -43 25 -9 14 -95 12 -125
-3 -22 -11 -32 -9 -87 18 -34 16 -63 35 -63 40 0 6 9 28 21 49 11 21 17 41 14
45 -9 8 -32 -25 -47 -65 -6 -18 -19 -35 -27 -37 -9 -3 -23 -8 -32 -11 -14 -6
-16 -2 -9 31 4 21 11 50 15 66 14 51 -4 27 -20 -28z m95 -190 c11 -13 7 -15
-24 -15 -51 0 -47 19 5 29 4 0 12 -6 19 -14z m254 -1321 c9 -3 12 -12 9 -22
-5 -11 -2 -14 9 -10 25 10 38 -5 23 -26 -8 -10 -19 -15 -25 -11 -9 6 -9 9 0
15 8 5 1 11 -19 18 -17 6 -31 14 -31 18 0 3 7 4 15 0 8 -3 15 -1 15 3 0 5 -6
12 -12 14 -7 3 -10 6 -6 6 3 1 13 -2 22 -5z m-127 -96 c-3 -7 -5 -2 -5 12 0
14 2 19 5 13 2 -7 2 -19 0 -25z m133 17 c10 -12 6 -13 -24 -8 -36 6 -51 -9
-21 -21 8 -3 15 -10 15 -17 0 -6 -7 -8 -16 -5 -9 4 -22 1 -30 -5 -17 -14 -7
-39 14 -32 13 4 14 3 3 -5 -7 -5 -11 -14 -7 -20 3 -6 0 -12 -6 -15 -9 -3 -8
-7 3 -11 10 -4 33 2 55 13 21 11 39 19 42 17 2 -2 -9 -27 -24 -56 -19 -36 -30
-48 -37 -41 -6 6 -15 11 -19 11 -13 0 -9 -28 4 -32 8 -3 5 -9 -9 -16 -29 -16
-49 -7 -65 29 -7 16 -15 29 -18 29 -20 0 6 134 34 169 23 30 86 40 106 16z
m227 -31 c3 -8 -1 -22 -9 -30 -13 -13 -16 -13 -29 2 -12 16 -12 17 4 11 9 -3
17 -2 17 3 0 6 -4 10 -10 10 -5 0 -10 5 -10 10 0 16 30 11 37 -6z m-667 -1434
c0 -5 -5 -10 -11 -10 -5 0 -7 5 -4 10 3 6 8 10 11 10 2 0 4 -4 4 -10z"/>
<path d="M4831 3239 c-7 -16 -11 -32 -9 -34 9 -9 61 42 54 53 -13 21 -31 13
-45 -19z"/>
<path d="M4617 2729 c7 -7 15 -10 18 -7 3 3 -2 9 -12 12 -14 6 -15 5 -6 -5z"/>
<path d="M4361 2617 c2 -1 15 -11 28 -22 l24 -20 -12 23 c-6 12 -19 22 -28 22
-9 0 -14 -1 -12 -3z"/>
<path d="M4325 2590 c10 -11 20 -20 23 -20 3 0 -3 9 -13 20 -10 11 -20 20 -23
20 -3 0 3 -9 13 -20z"/>
<path d="M3353 2558 c2 -7 10 -12 16 -10 13 2 14 -8 2 -26 -9 -14 -61 -7 -61
9 0 14 -146 1 -180 -16 -46 -24 -179 -169 -167 -181 5 -6 -116 -69 -293 -153
-30 -14 -70 -36 -90 -49 -36 -23 -99 -98 -100 -118 0 -5 -14 -23 -30 -39 -109
-104 -22 -359 184 -535 57 -50 103 -101 137 -151 85 -130 112 -153 210 -184
66 -20 94 -35 119 -62 29 -31 38 -34 69 -30 20 3 44 8 54 12 13 5 18 3 17 -6
-6 -42 1 -60 28 -70 32 -11 61 -53 91 -134 24 -64 37 -85 54 -85 5 0 2 9 -8
20 -14 15 -15 20 -4 20 10 1 9 5 -5 15 -10 8 -15 19 -10 26 4 7 -1 18 -12 27
-15 11 -16 15 -5 19 10 4 8 10 -10 24 -13 10 -18 19 -11 19 18 0 15 20 -4 20
-13 0 -14 3 -5 13 13 16 5 28 -15 20 -8 -3 -14 0 -14 6 0 6 5 11 10 11 6 0 10
7 10 15 0 9 -9 15 -21 15 -18 0 -19 2 -9 15 10 12 16 13 27 4 11 -9 12 -9 7 4
-6 17 29 71 40 60 3 -3 6 1 6 11 0 9 7 19 15 22 23 9 62 81 86 159 11 39 25
74 30 80 14 15 10 42 -7 49 -28 11 -90 6 -134 -9 -56 -20 -55 -20 -74 20 -10
20 -24 35 -34 35 -11 0 -32 27 -56 70 -23 41 -46 70 -55 70 -9 0 -23 10 -31
23 -46 72 -121 200 -123 210 -1 9 31 12 113 12 104 0 127 4 238 38 68 20 129
37 135 37 14 0 119 48 127 58 3 4 38 29 79 56 l73 50 -6 59 c-4 32 -3 64 2 70
21 29 34 94 23 115 -6 11 -11 39 -11 61 0 33 -6 46 -42 80 -64 61 -100 75
-185 72 -42 -1 -74 2 -78 8 -3 6 -13 11 -21 11 -8 0 -12 -4 -9 -10 3 -5 2 -10
-3 -10 -5 0 -12 9 -15 20 -4 15 -14 20 -37 20 -21 0 -30 -4 -27 -12z m92 -58
c-3 -5 -10 -10 -16 -10 -5 0 -9 5 -9 10 0 6 7 10 16 10 8 0 12 -4 9 -10z
m-130 -570 c-3 -5 -11 -10 -16 -10 -6 0 -7 5 -4 10 3 6 11 10 16 10 6 0 7 -4
4 -10z m43 -820 c-26 -51 -34 -59 -45 -47 -11 11 -6 21 29 60 24 26 44 47 45
47 2 0 -11 -27 -29 -60z"/>
<path d="M3880 2550 c8 -5 20 -10 25 -10 6 0 3 5 -5 10 -8 5 -19 10 -25 10 -5
0 -3 -5 5 -10z"/>
<path d="M4350 2553 c0 -16 19 -37 35 -39 14 -2 13 2 -6 22 -24 26 -29 29 -29
17z"/>
<path d="M4010 2530 c34 -11 60 -11 35 0 -11 5 -29 8 -40 8 -16 0 -15 -2 5 -8z"/>
<path d="M4310 2530 c20 -13 33 -13 25 0 -3 6 -14 10 -23 10 -15 0 -15 -2 -2
-10z"/>
<path d="M3810 2345 c0 -17 2 -18 24 -9 18 7 12 24 -10 24 -8 0 -14 -7 -14
-15z"/>
<path d="M3830 2311 c-12 -4 -14 -14 -9 -36 7 -30 7 -30 8 -3 1 20 7 27 24 30
16 2 18 5 7 9 -8 4 -22 3 -30 0z"/>
<path d="M3433 1017 c-46 -23 -81 -46 -79 -52 3 -5 24 -69 48 -142 38 -117 46
-134 71 -144 21 -9 31 -9 39 -1 14 14 25 382 12 381 -5 0 -46 -20 -91 -42z"/>
<path d="M3456 610 c14 -13 94 -17 81 -4 -3 4 -25 8 -48 9 -23 2 -38 0 -33 -5z"/>
</g>
</svg>
