<?xml version="1.0" standalone="no"?>
<!DOCTYPE svg PUBLIC "-//W3C//DTD SVG 20010904//EN"
 "http://www.w3.org/TR/2001/REC-SVG-20010904/DTD/svg10.dtd">
<svg version="1.0" xmlns="http://www.w3.org/2000/svg"
 width="900.000000pt" height="1125.000000pt" viewBox="0 0 900.000000 1125.000000"
 preserveAspectRatio="xMidYMid meet">

<g transform="translate(0.000000,1125.000000) scale(0.100000,-0.100000)"
fill="#000000" stroke="none">
<path d="M986 10340 c11 -100 30 -180 43 -180 11 0 -5 95 -28 165 l-20 60 5
-45z"/>
<path d="M931 10265 c-1 -29 23 -157 35 -188 10 -28 35 -141 43 -197 4 -30 10
-62 12 -70 2 -8 -2 -14 -8 -12 -19 3 -16 -11 7 -36 23 -24 26 -37 8 -26 -7 4
-9 3 -5 -1 4 -5 15 -10 23 -11 11 -2 14 3 9 14 -4 9 -10 23 -13 31 -3 8 -1 12
5 8 8 -5 10 24 3 43 -1 3 -1 15 -1 26 1 12 -6 39 -15 60 -9 22 -18 55 -19 76
-1 20 -10 53 -20 73 -9 21 -20 55 -22 77 -3 21 -10 41 -14 44 -5 3 -9 20 -10
37 -1 18 -5 43 -9 57 -8 25 -8 24 -9 -5z"/>
<path d="M1097 10256 c-4 -10 -7 -25 -6 -34 0 -11 4 -9 10 7 5 13 8 29 6 35
-2 5 -6 2 -10 -8z"/>
<path d="M922 9768 c-8 -8 -9 -15 -1 -25 15 -17 26 -17 26 2 0 8 -5 11 -10 8
-6 -4 -8 0 -4 10 8 20 5 21 -11 5z"/>
<path d="M925 9660 c5 -37 4 -50 -5 -50 -9 0 -11 -13 -8 -45 3 -24 2 -45 -2
-47 -5 -2 -10 -19 -12 -38 -3 -34 -2 -35 30 -35 34 0 39 -4 21 -22 -8 -8 -4
-17 15 -34 15 -13 24 -29 22 -36 -3 -7 -1 -13 5 -13 6 0 8 -4 5 -8 -3 -5 11
-24 32 -43 48 -44 77 -66 68 -51 -4 7 -2 12 3 12 6 0 11 -4 11 -10 0 -18 30
-11 31 8 0 13 3 12 11 -5 6 -13 14 -23 18 -23 4 0 22 -15 40 -32 l31 -33 20
25 c11 14 29 36 40 50 32 41 58 105 48 121 -5 8 -6 34 -3 58 5 35 4 43 -7 39
-8 -3 -13 -11 -11 -17 1 -7 -2 -10 -8 -6 -5 3 -10 1 -10 -6 0 -8 -4 -8 -15 1
-12 10 -13 16 -4 26 9 11 7 14 -9 14 -11 0 -25 -6 -31 -13 -8 -11 -3 -18 28
-33 30 -15 40 -26 44 -49 5 -36 0 -52 -19 -59 -9 -4 -14 2 -14 15 0 16 -4 19
-17 15 -10 -4 -15 -4 -11 -1 10 11 -30 45 -53 45 -16 0 -20 -4 -15 -17 3 -10
-6 -3 -21 15 -16 18 -34 32 -40 32 -7 0 -13 5 -13 10 0 6 4 10 8 10 4 0 8 9 9
21 2 18 0 17 -19 -7 -21 -26 -21 -27 -3 -40 10 -8 22 -14 26 -14 4 0 12 -13
17 -30 10 -26 8 -32 -16 -50 -15 -11 -32 -24 -39 -30 -17 -14 -23 -13 -23 5 0
8 -6 12 -14 9 -8 -3 -21 5 -30 18 -16 22 -15 24 11 46 15 12 34 20 42 17 11
-4 11 -2 2 8 -7 9 -22 12 -38 9 -25 -5 -26 -3 -20 28 6 29 5 32 -13 27 -11 -3
-22 -2 -25 3 -2 4 -16 6 -30 5 -28 -4 -32 6 -11 24 10 9 14 31 13 71 -1 34 5
69 13 85 14 26 13 29 -13 51 -42 36 -50 31 -42 -26z m315 -327 c0 -13 -3 -13
-15 -3 -8 7 -15 16 -15 21 0 5 7 6 15 3 8 -4 15 -13 15 -21z m-19 -45 c7 -18
15 -37 17 -43 3 -5 -2 -4 -11 4 -10 7 -17 18 -17 24 0 6 -7 19 -17 29 -14 16
-14 18 -1 18 9 0 22 -15 29 -32z m-40 -11 c-1 -12 -15 -9 -19 4 -3 6 1 10 8 8
6 -3 11 -8 11 -12z"/>
<path d="M1028 9634 c10 -27 18 -39 20 -29 4 20 -17 75 -29 75 -4 0 0 -21 9
-46z"/>
<path d="M1159 9600 c-1 -3 -3 -14 -4 -25 -1 -11 -5 -29 -8 -40 -8 -24 6 -50
22 -41 14 9 14 75 1 96 -5 8 -10 13 -11 10z"/>
<path d="M4705 9551 c-101 -25 -266 -80 -292 -97 -32 -20 -47 -54 -77 -172
-52 -201 -68 -349 -52 -454 5 -33 4 -38 -14 -38 -13 0 -18 -5 -14 -15 4 -8 1
-15 -5 -15 -13 0 -14 -40 -2 -89 5 -20 15 -63 21 -96 7 -33 14 -70 17 -82 4
-17 -5 -28 -38 -52 -48 -35 -96 -43 -84 -13 21 48 17 70 -19 109 -34 37 -35
37 -36 13 0 -20 2 -22 10 -10 8 12 10 10 11 -10 0 -14 2 -35 3 -48 2 -13 -2
-25 -7 -29 -5 -3 -3 -9 4 -14 8 -5 9 -9 3 -9 -12 0 -6 -57 7 -66 5 -3 29 9 54
26 56 38 76 31 99 -37 23 -67 20 -100 -12 -142 -45 -58 -65 -118 -68 -208 -3
-65 -9 -93 -30 -135 -61 -120 -175 -261 -236 -290 -75 -36 -220 -98 -334 -142
-66 -25 -190 -85 -275 -132 -85 -48 -199 -109 -254 -136 -121 -59 -175 -95
-195 -130 -14 -26 -13 -28 21 -60 34 -31 41 -33 105 -33 78 0 95 -7 169 -78
27 -27 59 -53 70 -58 11 -6 -4 11 -33 38 -29 26 -52 53 -52 60 0 6 -10 19 -22
27 -30 21 -20 20 28 -3 23 -12 68 -53 112 -105 40 -47 77 -86 81 -86 9 0 22
-17 157 -205 36 -49 88 -121 116 -160 28 -38 53 -78 55 -87 3 -10 10 -19 17
-20 6 0 16 -2 21 -3 17 -2 93 -44 97 -53 1 -5 36 -32 76 -61 39 -29 72 -57 72
-62 0 -5 -15 -9 -32 -9 -18 1 -60 -2 -93 -5 -88 -9 -92 -8 -114 14 -12 12 -28
21 -37 21 -15 0 -15 -2 0 -25 20 -30 20 -42 2 -61 -16 -15 -45 -18 -61 -6 -6
4 -21 34 -33 67 -13 33 -28 69 -32 80 -5 11 -12 34 -16 50 l-8 30 -6 -40 -7
-40 -2 48 c-1 31 3 47 12 48 6 0 0 5 -15 11 -31 11 -36 25 -13 34 28 11 15 22
-48 43 -38 13 -93 44 -142 81 -44 33 -84 60 -90 60 -5 0 -41 16 -80 35 -38 19
-71 35 -72 35 -1 0 0 -7 3 -15 4 -8 1 -15 -5 -15 -6 0 -11 7 -11 15 0 12 -4
13 -19 6 -10 -6 -21 -7 -25 -4 -3 3 -6 1 -6 -6 0 -7 7 -11 14 -8 10 4 13 1 10
-7 -3 -8 -1 -17 5 -21 6 -3 11 0 11 7 0 7 7 2 16 -10 9 -13 13 -26 10 -29 -3
-4 -6 -2 -6 4 0 6 -8 9 -18 6 -10 -2 -24 3 -31 11 -36 43 -53 -5 -31 -86 6
-21 12 -59 14 -85 5 -66 5 -65 15 -58 6 3 7 -6 2 -22 -10 -35 2 -141 19 -174
8 -13 16 -37 20 -54 l6 -30 84 -3 c47 -1 94 -7 105 -12 11 -5 45 -19 76 -30
95 -35 93 -30 72 -145 -12 -70 -22 -104 -35 -113 -10 -7 -18 -19 -18 -25 0 -7
-8 -24 -17 -37 -13 -18 -18 -45 -18 -90 -1 -48 -9 -87 -33 -150 -29 -78 -32
-95 -31 -200 0 -146 14 -203 83 -341 63 -126 123 -214 188 -276 70 -67 258
-212 318 -246 l56 -30 42 -126 c23 -69 45 -137 48 -151 4 -14 26 -47 50 -74
32 -35 44 -57 44 -80 1 -17 7 -42 15 -56 8 -14 14 -35 15 -48 0 -12 5 -31 12
-42 16 -26 7 -32 -28 -20 -26 9 -79 16 -369 50 -94 11 -178 31 -187 44 -4 6
-5 20 -2 32 7 27 -22 57 -47 49 -10 -4 -71 -7 -136 -7 l-117 -1 -45 51 c-25
28 -56 55 -68 61 -15 7 -20 17 -16 31 3 12 -5 36 -21 60 -14 22 -26 50 -26 62
0 13 -9 38 -20 56 -15 24 -27 32 -49 32 -34 0 -314 -137 -573 -281 -195 -108
-237 -136 -179 -119 18 5 46 7 61 3 38 -7 126 19 225 68 70 34 155 59 203 59
26 0 2 -14 -41 -25 -32 -8 -43 -15 -45 -32 -4 -25 -19 -31 -82 -34 -49 -3 -79
-13 -123 -43 -37 -25 -140 -45 -228 -45 -85 1 -126 -14 -209 -73 -70 -50 -230
-196 -230 -210 0 -16 52 -3 125 31 35 17 83 35 107 41 24 7 54 18 68 25 14 7
43 16 65 20 l40 6 -40 -26 c-38 -26 -39 -27 -10 -20 17 3 80 8 140 11 94 4
124 2 205 -19 94 -23 95 -24 98 -56 2 -23 10 -35 23 -38 23 -6 22 -3 4 -40
-11 -22 -12 -40 -6 -74 5 -24 9 -38 10 -31 1 6 6 12 12 12 6 0 9 -9 6 -19 -5
-20 17 -61 33 -61 5 0 7 23 5 50 -3 38 0 50 10 50 9 0 12 6 9 15 -5 11 -2 13
10 9 10 -4 15 -13 12 -20 -3 -8 -3 -21 1 -30 5 -13 7 -13 14 -2 6 9 9 6 9 -10
0 -14 -8 -26 -22 -32 -13 -5 -17 -9 -9 -9 8 -1 11 -8 7 -18 -5 -14 -3 -14 9 2
25 35 36 45 45 45 13 0 13 -23 0 -36 -11 -11 28 -93 53 -108 25 -16 66 20 94
81 25 55 27 83 7 165 -5 23 -3 28 13 28 11 0 28 7 39 15 25 19 57 18 128 -3
50 -15 61 -22 69 -47 16 -50 44 -72 100 -80 29 -5 56 -7 61 -6 28 6 280 -107
476 -214 119 -65 256 -126 387 -171 l111 -39 8 -50 c4 -27 6 -54 4 -60 -3 -11
-21 -182 -23 -230 -2 -26 -8 -32 -52 -47 -115 -42 -129 -136 -30 -194 42 -24
46 -30 40 -53 -4 -14 -9 -115 -12 -224 -4 -161 -7 -196 -18 -187 -15 12 -18
-6 -36 -205 -16 -176 -1 -352 36 -433 31 -67 122 -156 209 -203 101 -54 244
-50 298 8 23 25 23 26 1 14 -12 -6 -24 -7 -27 -3 -7 12 6 192 14 192 10 0 37
-24 49 -45 11 -17 12 -15 7 18 -3 25 -19 55 -47 88 -41 50 -41 50 -50 160 -4
61 -5 118 -2 127 14 46 16 46 27 12 12 -31 13 -21 19 108 5 103 11 151 23 175
25 47 43 121 54 212 5 44 12 95 16 113 6 29 4 34 -15 39 -31 8 -51 53 -51 115
l0 53 44 18 c52 22 57 30 62 122 3 41 19 116 39 179 21 64 35 130 35 159 0 39
7 61 30 97 36 57 76 151 90 217 13 55 80 525 80 556 0 12 22 58 49 102 83 134
92 192 73 432 -12 159 -32 247 -69 313 -21 36 -26 59 -27 120 -1 54 -9 99 -31
163 -29 87 -29 88 -13 135 13 36 18 86 19 205 1 146 3 157 20 157 11 0 19 7
19 16 0 11 6 13 19 9 11 -3 22 -1 26 5 11 19 24 10 36 -25 14 -38 63 -65 72
-40 3 7 -1 12 -10 11 -9 0 -18 5 -21 13 -3 10 0 12 12 8 10 -4 16 -1 16 8 0
21 31 32 70 24 19 -3 27 -7 18 -8 -26 -2 -22 -21 5 -21 18 0 19 -2 7 -10 -13
-8 -12 -10 3 -10 24 0 22 -20 -3 -21 -11 -1 -26 -2 -32 -3 -7 -1 -19 2 -26 7
-8 7 -17 6 -24 -1 -7 -7 -10 -13 -7 -14 2 -2 18 -12 34 -24 22 -15 38 -19 62
-14 18 4 36 3 42 -3 8 -8 11 -7 11 3 0 10 4 9 18 -3 17 -15 18 -15 19 3 1 13
-5 20 -15 20 -22 0 -62 48 -55 66 3 8 0 14 -6 14 -6 0 -11 13 -11 28 0 15 -6
34 -12 41 -10 11 -10 13 0 7 6 -4 12 -2 12 3 0 6 -7 11 -15 11 -10 0 -13 8
-11 28 2 15 1 21 -1 14 -3 -9 -10 -5 -19 13 -8 15 -11 31 -8 36 3 6 0 17 -7
25 -11 13 -10 15 2 14 7 -1 22 -2 33 -1 15 1 16 4 6 16 -7 8 -16 12 -21 9 -5
-3 -9 -1 -9 5 0 5 6 11 13 13 13 5 17 34 17 121 0 40 3 57 12 57 9 0 8 3 -2
10 -13 8 -13 11 -1 19 8 5 12 18 8 30 -4 16 0 21 13 21 14 0 18 8 17 35 -1 32
-7 40 -29 36 -5 0 -8 8 -8 18 0 17 6 19 39 16 l40 -4 -6 37 c-9 53 -77 239
-108 294 -18 32 -24 55 -20 69 4 12 3 19 -2 16 -5 -3 -22 21 -38 54 -15 33
-30 57 -33 55 -3 -3 0 -31 6 -63 6 -32 9 -71 8 -88 -2 -16 -4 -50 -6 -75 l-2
-45 -9 40 c-5 22 -10 45 -11 52 -1 7 -8 12 -17 11 -46 -3 -57 3 -71 40 -7 20
-15 32 -17 25 -2 -7 0 -21 6 -31 8 -15 7 -23 -3 -31 -8 -7 -18 -11 -22 -10
-21 3 -22 -3 -8 -37 9 -20 13 -47 10 -59 -4 -17 1 -27 19 -39 14 -9 25 -23 25
-30 0 -8 16 -37 35 -65 44 -63 32 -67 -20 -6 -21 25 -40 43 -43 40 -3 -3 -11
7 -18 22 -10 24 -11 14 -8 -64 2 -51 0 -93 -5 -93 -4 0 -13 41 -19 91 -7 50
-23 128 -37 174 -23 81 -32 134 -59 350 -32 247 -32 234 4 215 16 -8 18 -8 14
5 -4 8 -14 15 -23 15 -21 0 -49 118 -59 247 l-7 88 -27 -57 c-15 -32 -30 -58
-33 -58 -19 0 -46 24 -44 38 3 20 -10 138 -18 165 -4 15 0 18 24 15 27 -3 28
-5 33 -68 l5 -65 14 33 c11 26 18 31 35 26 19 -6 19 -5 7 10 -10 12 -11 20 -4
24 5 4 13 36 16 72 7 75 60 236 87 264 21 22 40 14 40 -18 0 -34 31 -56 89
-63 36 -4 56 -12 64 -24 16 -26 27 -24 27 5 0 31 -38 85 -80 114 -29 19 -44
23 -85 19 l-49 -4 27 23 c32 28 35 39 5 23 -18 -10 -20 -9 -15 6 4 9 7 24 7
33 0 13 2 14 9 3 15 -23 19 2 9 69 -17 130 -22 194 -28 375 l-1 50 -19 -50
c-44 -120 -60 -169 -59 -184 0 -9 6 0 11 19 l11 35 8 -37 c10 -44 1 -74 -38
-124 -39 -50 -89 -72 -197 -89 -109 -16 -126 -13 -183 29 -55 40 -61 56 -23
56 156 0 332 143 479 391 23 39 29 71 10 52 -14 -14 -49 -5 -49 14 0 8 -5 11
-11 8 -5 -4 -8 -12 -6 -18 4 -12 -20 -36 -35 -37 -4 0 -6 15 -4 32 4 44 -23
97 -54 105 -35 9 -71 32 -97 62 l-22 26 -10 -25 c-5 -14 -10 -21 -10 -16 -1 5
-8 3 -16 -4 -13 -10 -15 -9 -15 8 0 26 28 42 74 44 24 1 33 5 29 15 -6 16 -17
16 -61 1 -32 -12 -35 -11 -59 16 -15 17 -22 35 -18 45 4 9 12 60 17 113 l11
96 -26 32 c-15 17 -27 35 -27 39 0 11 -47 31 -74 31 -12 0 -26 3 -29 7 -12 11
57 69 105 88 67 25 161 10 245 -39 46 -27 78 -38 125 -42 73 -8 95 -23 104
-73 4 -20 12 -39 18 -43 8 -5 7 -8 -1 -8 -7 0 -13 -12 -13 -26 0 -23 2 -25 16
-13 20 16 54 93 54 120 0 11 7 22 15 25 20 8 38 80 31 122 -3 19 -16 48 -29
65 -20 27 -25 51 -34 154 -14 164 -30 193 -138 251 -89 47 -239 103 -276 101
-13 -1 -55 -9 -94 -18z m-85 -105 c0 -11 -19 -15 -25 -6 -3 5 1 10 9 10 9 0
16 -2 16 -4z m55 -6 c-3 -5 -13 -10 -21 -10 -8 0 -12 5 -9 10 3 6 13 10 21 10
8 0 12 -4 9 -10z m74 1 c11 -7 10 -11 -7 -20 -41 -22 -74 -5 -34 18 21 13 24
13 41 2z m111 -27 c0 -2 -16 -10 -36 -19 -27 -11 -41 -12 -56 -4 -20 11 -19
12 8 28 22 14 35 16 57 8 15 -5 27 -11 27 -13z m-254 -9 c-3 -8 -1 -15 4 -15
6 0 10 4 10 8 0 4 14 9 30 10 17 1 30 -1 30 -6 0 -8 -71 -46 -74 -40 0 2 -7
14 -14 27 -8 12 -9 20 -3 16 6 -3 11 -1 11 4 0 6 3 11 6 11 3 0 4 -7 0 -15z
m335 -21 c17 -8 28 -18 25 -21 -11 -12 -109 -42 -117 -37 -5 3 -43 -11 -85
-31 -59 -27 -80 -32 -90 -24 -19 16 -12 23 52 58 43 23 61 28 75 21 13 -8 21
-6 31 8 11 14 31 25 76 41 2 1 17 -6 33 -15z m-204 -9 c3 -10 -76 -55 -97 -55
-23 0 -7 28 28 48 38 22 63 25 69 7z m138 -127 c-4 -24 -9 -45 -11 -47 -8 -8
-43 32 -37 42 3 5 1 7 -5 3 -6 -3 -13 -2 -16 3 -5 7 50 37 72 40 2 1 1 -18 -3
-41z m-377 -359 c4 -31 -27 -48 -103 -56 -27 -3 -56 -10 -62 -16 -18 -14 -16
-3 7 36 22 37 49 54 95 60 50 7 60 3 63 -24z m164 -130 c30 -28 30 -30 6 -15
-40 23 -47 20 -15 -8 15 -13 27 -29 27 -36 0 -10 4 -9 16 1 15 12 16 10 9 -21
-4 -19 -13 -48 -21 -64 -17 -35 -18 -56 -3 -56 6 0 9 -6 6 -12 -2 -7 -11 -12
-20 -10 -21 3 -34 -43 -18 -62 13 -16 2 -27 -61 -61 l-42 -22 -28 51 c-15 28
-27 61 -28 74 0 12 -4 22 -9 22 -15 0 -41 61 -41 97 l0 34 58 -2 c56 -2 130
18 104 28 -8 3 -10 9 -4 16 5 7 12 22 15 35 4 18 1 22 -20 22 -13 0 -21 4 -18
10 12 20 55 9 87 -21z m-96 -56 c-7 -7 -26 7 -26 19 0 6 6 6 15 -2 9 -7 13
-15 11 -17z m189 -303 c4 -6 10 -8 15 -5 5 3 20 0 32 -7 13 -7 26 -11 31 -10
4 1 7 -2 7 -6 0 -9 -77 -7 -108 2 -24 8 -29 22 -9 29 19 8 25 8 32 -3z m146
-82 c14 -22 2 -72 -27 -116 -15 -24 -33 -41 -40 -38 -7 3 -15 -5 -18 -17 -5
-18 -8 -19 -15 -8 -8 12 -12 12 -25 2 -13 -11 -17 -11 -22 2 -3 9 -12 13 -20
10 -22 -8 -17 25 5 37 11 5 29 10 40 10 18 0 51 34 51 52 0 5 -11 8 -24 8 -14
0 -27 4 -31 9 -3 6 -13 9 -23 9 -9 -1 -29 1 -43 5 -21 5 -25 11 -22 30 5 23 7
24 105 21 70 -2 104 -7 109 -16z m-191 -135 c0 -5 -5 -15 -10 -23 -7 -11 -10
-11 -10 -2 0 7 -4 10 -10 7 -6 -3 -7 1 -4 9 6 16 34 23 34 9z m-775 -704 c22
-6 48 -18 58 -27 19 -16 23 -57 7 -67 -7 -4 -7 -12 0 -25 32 -59 -5 -101 -71
-81 -21 6 -40 15 -42 19 -3 4 -8 49 -11 100 -8 102 -10 100 59 81z m151 -78
c-3 -20 -6 -64 -6 -99 0 -60 -1 -63 -22 -60 -22 3 -23 6 -19 98 3 94 10 113
39 103 10 -4 13 -16 8 -42z m159 -5 c19 -8 39 -23 46 -34 12 -19 12 -19 30 -1
23 23 73 24 113 4 21 -11 31 -12 36 -4 4 6 17 8 28 5 19 -6 20 -13 15 -59 -5
-50 -5 -51 11 -29 18 24 50 29 62 10 4 -7 -2 -18 -14 -26 -25 -17 -28 -39 -7
-66 21 -27 19 -46 -5 -46 -12 0 -27 13 -39 38 l-20 37 -7 -32 c-7 -34 -22 -41
-42 -21 -6 6 -35 12 -64 14 -29 1 -71 8 -93 14 -22 7 -58 11 -80 11 -32 -1
-46 4 -63 24 -25 29 -29 67 -8 84 8 7 33 13 55 14 25 1 41 6 41 14 0 19 -16
24 -46 12 -24 -8 -31 -7 -41 7 -17 24 -16 32 5 37 32 9 53 7 87 -7z m553 -113
c18 -20 22 -33 18 -56 -3 -16 -6 -38 -6 -49 0 -27 -44 -68 -73 -68 -13 0 -36
9 -51 21 -21 16 -26 29 -26 64 0 52 14 95 38 113 24 18 72 6 100 -25z m-359
-252 c58 -14 106 -32 109 -38 2 -8 -5 -13 -17 -13 -15 0 -22 -9 -28 -42 -6
-27 -14 -43 -23 -43 -12 0 -14 11 -13 48 3 41 0 47 -16 47 -11 0 -23 5 -26 10
-3 6 -14 10 -23 10 -11 0 -6 -9 17 -28 30 -25 32 -31 22 -50 -14 -26 -17 -27
-105 -5 l-68 16 6 49 c10 70 15 80 40 72 11 -4 68 -19 125 -33z m208 -53 c4
-7 28 -13 52 -14 32 -1 49 -7 61 -22 15 -18 19 -19 32 -6 13 13 18 12 43 -8
19 -15 30 -18 33 -10 5 17 42 15 42 -2 0 -8 -9 -21 -21 -29 -20 -14 -20 -16
-5 -46 16 -30 16 -31 -3 -31 -11 0 -23 9 -26 21 -6 19 -8 19 -24 5 -24 -22
-48 -20 -56 5 -6 18 -9 19 -23 5 -15 -13 -24 -13 -77 1 -33 8 -70 17 -82 20
-25 6 -32 33 -9 33 20 0 28 52 10 66 -8 6 -14 14 -14 18 0 11 59 6 67 -6z
m328 -148 c0 -18 -6 -26 -23 -28 -13 -2 -25 3 -28 12 -10 26 4 48 28 44 17 -2
23 -10 23 -28z m332 -632 c-3 -8 -6 -5 -6 6 -1 11 2 17 5 13 3 -3 4 -12 1 -19z
m-90 -180 c-3 -8 -6 -5 -6 6 -1 11 2 17 5 13 3 -3 4 -12 1 -19z m-70 -90 c-3
-7 -5 -2 -5 12 0 14 2 19 5 13 2 -7 2 -19 0 -25z m290 -30 c-3 -8 -6 -5 -6 6
-1 11 2 17 5 13 3 -3 4 -12 1 -19z m-277 -33 c0 -5 -5 -3 -10 5 -5 8 -10 20
-10 25 0 6 5 3 10 -5 5 -8 10 -19 10 -25z m-17 -296 c-6 -6 -7 3 -4 23 4 28 6
29 9 9 2 -13 0 -27 -5 -32z m225 26 c-3 -3 -9 2 -12 12 -6 14 -5 15 5 6 7 -7
10 -15 7 -18z m-138 -142 c0 -20 -8 -33 -29 -44 -16 -9 -34 -13 -41 -9 -13 8
-5 30 11 30 13 0 48 37 42 44 -4 3 -1 6 5 6 7 0 12 -12 12 -27z m92 -16 c7 -8
18 -12 24 -10 6 2 22 -1 35 -7 21 -9 20 -9 -10 -4 -23 4 -31 3 -27 -5 4 -6 -9
-3 -28 6 -20 10 -36 21 -36 26 0 12 28 8 42 -6z m-182 -17 c0 -5 -2 -10 -4
-10 -3 0 -8 5 -11 10 -3 6 -1 10 4 10 6 0 11 -4 11 -10z m-2223 -1458 c-21
-23 -97 -66 -97 -55 0 15 15 28 55 50 49 27 63 29 42 5z m-237 -586 c0 -31
-26 -41 -40 -16 -7 12 -7 20 -1 20 5 0 11 -8 14 -17 3 -14 6 -11 11 10 10 33
16 35 16 3z m81 -59 c-8 -8 -11 -7 -11 4 0 20 13 34 18 19 3 -7 -1 -17 -7 -23z
m1867 -1211 c12 0 22 -3 22 -7 0 -5 5 -8 12 -6 7 1 17 -8 22 -19 7 -16 18 -21
40 -20 26 1 31 -3 34 -24 2 -17 -6 -34 -23 -50 -14 -13 -25 -29 -25 -36 0 -8
-9 -29 -20 -49 -11 -20 -20 -46 -20 -58 0 -39 -13 -48 -47 -37 -16 6 -34 10
-39 9 -20 -3 -68 4 -51 8 19 5 23 28 5 39 -8 5 -9 2 -5 -9 9 -25 -9 -21 -29 6
-14 19 -15 19 -9 2 18 -50 18 -51 -15 -49 -17 1 -33 4 -35 6 -2 2 -5 28 -6 58
-1 30 -6 60 -11 67 -6 7 -7 17 -3 23 10 16 -4 50 -21 50 -8 0 -14 5 -14 10 0
6 5 10 11 10 5 0 8 4 5 9 -3 5 11 9 32 10 20 0 51 2 69 2 l32 2 -16 31 c-16
30 -16 31 3 16 10 -7 25 -21 33 -30 11 -13 12 -12 6 9 -8 25 11 46 30 32 5 -4
20 -6 33 -5z m114 -238 c-7 -7 -12 -8 -12 -2 0 14 12 26 19 19 2 -3 -1 -11 -7
-17z m-493 -347 c10 -6 11 -19 5 -52 -10 -52 -6 -120 7 -133 5 -6 10 -28 10
-50 2 -39 2 -38 14 19 11 53 13 56 15 25 2 -19 4 -40 4 -47 1 -7 7 -18 14 -25
16 -16 15 -33 -2 -47 -11 -9 -12 -6 -9 16 l4 28 -25 -27 c-14 -16 -28 -28 -31
-28 -25 0 -54 218 -39 297 7 35 11 38 33 24z m81 -381 c0 -5 -7 -10 -16 -10
-8 0 -12 5 -9 10 3 6 10 10 16 10 5 0 9 -4 9 -10z m284 -149 c3 -4 3 -11 0
-14 -8 -8 -34 3 -34 14 0 11 27 12 34 0z"/>
<path d="M3920 7430 c0 -20 25 -38 36 -27 8 7 -15 47 -26 47 -6 0 -10 -9 -10
-20z"/>
<path d="M3920 7340 c0 -32 1 -33 24 -24 22 8 20 31 -4 44 -18 10 -20 8 -20
-20z"/>
<path d="M4366 7308 c-9 -34 -7 -76 3 -83 5 -3 16 2 24 10 9 8 25 15 36 15 12
0 21 3 21 8 0 4 3 17 6 30 5 19 2 22 -20 22 -14 0 -26 5 -26 10 0 20 -38 10
-44 -12z"/>
<path d="M4198 7289 c-9 -5 -15 -16 -12 -23 7 -19 44 -28 44 -11 0 7 3 20 6
29 7 18 -12 21 -38 5z"/>
<path d="M4727 7263 c-3 -5 -8 -30 -12 -56 -7 -45 -6 -49 11 -45 25 4 49 75
33 94 -13 15 -25 18 -32 7z"/>
<path d="M4320 7022 c0 -5 9 -12 21 -15 13 -3 19 -1 16 6 -5 15 -37 22 -37 9z"/>
<path d="M4332 6983 c-30 -6 -18 -23 17 -23 15 0 32 -5 39 -12 6 -6 15 -8 19
-3 5 4 2 10 -5 12 -7 3 -19 11 -26 19 -8 8 -16 13 -18 13 -2 -1 -13 -4 -26 -6z"/>
<path d="M4680 6930 c0 -5 5 -10 10 -10 6 0 10 5 10 10 0 6 -4 10 -10 10 -5 0
-10 -4 -10 -10z"/>
<path d="M4637 6906 c-8 -20 23 -38 44 -25 12 7 11 9 -3 9 -9 0 -21 7 -26 16
-8 15 -10 15 -15 0z"/>
<path d="M4792 6884 c4 -21 22 -23 26 -1 2 10 -3 17 -13 17 -10 0 -15 -6 -13
-16z"/>
<path d="M4562 1909 c2 -7 10 -15 17 -17 8 -3 12 1 9 9 -2 7 -10 15 -17 17 -8
3 -12 -1 -9 -9z"/>
<path d="M4458 1852 c-6 -23 -1 -32 19 -32 17 0 17 11 0 35 -13 17 -14 17 -19
-3z"/>
<path d="M1235 9500 c10 -11 20 -18 23 -16 5 6 -23 36 -34 36 -4 0 1 -9 11
-20z"/>
<path d="M1240 9404 c0 -9 32 -33 44 -34 5 0 1 9 -9 20 -18 20 -35 26 -35 14z"/>
<path d="M1116 9381 c-7 -10 22 -37 30 -28 4 3 -1 13 -9 22 -9 8 -18 11 -21 6z"/>
<path d="M1375 9230 c-3 -5 1 -13 10 -16 22 -9 29 1 11 15 -10 8 -16 9 -21 1z"/>
<path d="M1293 9183 c-10 -16 -22 -31 -27 -34 -5 -4 -6 -15 -2 -24 4 -12 2
-16 -8 -12 -10 4 -13 1 -10 -8 3 -7 -2 -25 -11 -39 -9 -14 -13 -31 -9 -37 4
-8 3 -9 -4 -5 -12 7 -29 -40 -18 -51 4 -4 22 -1 40 5 18 7 42 9 52 6 16 -6 17
-5 7 7 -7 7 -13 18 -13 23 0 6 7 1 15 -11 9 -13 23 -20 34 -18 11 2 29 -7 42
-22 40 -41 56 -46 79 -23 18 18 19 24 8 37 -11 14 -10 15 10 9 16 -6 22 -3 22
8 0 9 -4 16 -9 16 -5 0 -30 12 -57 27 -34 19 -44 29 -31 31 9 2 17 10 17 17 0
8 -8 19 -17 25 -16 10 -16 11 2 7 17 -3 20 1 20 30 0 26 -4 33 -20 33 -11 0
-27 4 -35 10 -16 10 -40 -5 -40 -25 0 -8 10 -12 27 -10 44 5 57 -6 27 -21 -25
-13 -30 -12 -59 8 -27 18 -31 25 -22 39 6 10 15 15 19 13 4 -3 8 0 8 5 0 20
-19 11 -37 -16z m57 -103 c19 -11 31 -19 25 -19 -5 0 -26 8 -45 19 -19 11 -30
19 -25 19 6 0 26 -8 45 -19z m-125 -80 c3 -5 1 -10 -4 -10 -6 0 -11 5 -11 10
0 6 2 10 4 10 3 0 8 -4 11 -10z"/>
<path d="M1520 8981 c0 -5 16 -32 35 -61 19 -29 35 -57 35 -64 0 -12 28 -36
95 -81 43 -30 125 -74 125 -69 0 17 -67 98 -111 135 -28 24 -77 67 -108 96
-55 52 -71 61 -71 44z"/>
<path d="M1494 8949 c-7 -13 52 -77 62 -66 3 3 -1 13 -9 22 -9 8 -19 24 -22
35 -7 22 -20 26 -31 9z"/>
<path d="M4876 8852 c-15 -3 -17 -10 -13 -38 4 -25 1 -36 -10 -43 -26 -14 -8
-44 22 -37 18 5 25 2 25 -8 0 -8 5 -18 10 -21 16 -10 50 5 50 21 0 19 6 18 40
-8 24 -17 33 -19 42 -10 16 16 2 39 -43 71 l-34 24 43 -7 43 -6 -16 30 c-8 16
-19 30 -23 31 -43 4 -121 5 -136 1z m118 -93 c20 -12 36 -26 36 -32 0 -5 -8
-3 -17 6 -10 8 -37 20 -60 26 -24 7 -43 14 -43 16 0 13 53 3 84 -16z"/>
<path d="M1630 8776 c0 -3 14 -12 30 -21 17 -9 30 -13 30 -11 0 3 -13 12 -30
21 -16 9 -30 13 -30 11z"/>
<path d="M5222 8728 c-7 -9 -6 -17 4 -26 8 -7 14 -8 14 -3 0 5 3 16 6 25 7 19
-9 21 -24 4z"/>
<path d="M3506 8653 c-17 -111 -18 -128 -8 -118 10 10 28 165 19 165 -2 0 -8
-21 -11 -47z"/>
<path d="M3412 8548 c1 -40 -2 -84 -6 -98 -6 -18 -5 -22 3 -15 13 13 30 127
23 161 -9 49 -21 22 -20 -48z"/>
<path d="M4057 8593 c9 -25 43 -80 43 -70 0 11 -39 87 -45 87 -2 0 -1 -8 2
-17z"/>
<path d="M2356 8531 c-11 -17 -3 -80 11 -85 21 -9 15 -28 -7 -21 -11 3 -20 4
-20 2 0 -3 23 -12 51 -21 51 -17 80 -13 46 5 -12 7 -16 17 -12 32 4 15 3 18
-3 9 -7 -11 -10 -10 -16 3 -3 9 -4 21 0 26 3 5 -6 20 -20 34 -14 14 -27 21
-30 16z"/>
<path d="M2200 8510 c0 -13 18 -22 24 -11 3 5 -1 11 -9 15 -8 3 -15 1 -15 -4z"/>
<path d="M2318 8482 c-22 -4 -24 -32 -2 -32 8 0 13 4 10 9 -4 5 0 11 6 14 18
6 6 14 -14 9z"/>
<path d="M2675 8480 c-4 -7 -9 -43 -11 -82 -4 -72 -9 -92 -25 -83 -5 3 -6 -1
-3 -9 3 -8 12 -12 19 -10 8 3 12 -1 12 -12 -1 -9 10 -24 24 -33 95 -57 141
-83 144 -79 3 2 -9 22 -25 45 -31 41 -76 138 -61 128 5 -3 7 4 4 16 -3 11 -12
23 -19 26 -8 3 -12 8 -10 12 2 3 -6 26 -18 50 -16 30 -25 40 -31 31z"/>
<path d="M2460 8416 c0 -22 29 -41 42 -28 9 9 7 16 -8 27 -24 18 -34 19 -34 1z"/>
<path d="M2767 8401 c2 -10 21 -38 41 -64 20 -26 68 -86 106 -134 39 -49 76
-100 84 -116 7 -15 29 -39 48 -54 40 -30 36 -33 103 77 21 36 48 74 60 84 20
19 30 53 12 42 -5 -4 -11 -2 -13 4 -1 5 -13 7 -25 4 -16 -4 -23 -14 -23 -29 0
-13 -6 -25 -14 -28 -17 -7 -27 14 -16 33 6 10 9 9 13 -1 3 -9 6 -6 6 7 1 26
-34 61 -44 44 -4 -6 -7 -50 -6 -96 0 -77 -1 -84 -19 -84 -13 0 -20 7 -20 18 0
11 -27 51 -59 90 -33 38 -57 73 -54 76 4 3 1 6 -5 6 -7 0 -12 7 -12 15 0 8 -9
15 -19 15 -10 0 -41 22 -67 48 -55 54 -84 71 -77 43z"/>
<path d="M3147 8293 c-4 -3 -7 -13 -7 -22 1 -13 3 -13 11 2 11 19 8 33 -4 20z"/>
<path d="M3280 8285 c-7 -9 -11 -17 -9 -20 3 -2 10 5 17 15 14 24 10 26 -8 5z"/>
<path d="M3280 8245 c0 -6 12 -23 26 -38 25 -27 25 -29 8 -42 -17 -13 -17 -16
-4 -25 8 -6 25 -8 36 -5 16 4 32 -7 64 -41 23 -25 39 -48 37 -51 -3 -3 -23 13
-45 36 -34 36 -73 57 -57 31 3 -5 13 -10 21 -10 8 0 12 -4 9 -10 -3 -5 -17
-10 -31 -10 -28 0 -84 -49 -84 -75 0 -11 -5 -15 -15 -11 -9 3 -15 0 -15 -10 0
-32 23 -110 38 -126 16 -19 3 -25 -15 -7 -14 14 -44 -1 -72 -37 -27 -34 -14
-64 24 -56 14 2 47 -5 74 -17 50 -21 89 -18 106 8 4 8 12 8 26 1 11 -6 16 -16
13 -22 -5 -7 -2 -9 9 -5 9 3 27 -3 40 -14 14 -10 30 -19 36 -19 24 0 8 19 -50
61 -47 35 -56 45 -40 47 12 2 18 9 15 16 -3 8 4 16 18 19 14 4 29 20 37 39 8
18 18 41 22 51 6 12 3 23 -11 35 -20 17 -27 42 -11 42 5 0 31 -25 58 -55 28
-30 54 -55 59 -55 5 0 -23 33 -62 73 -39 39 -108 115 -154 167 -108 124 -110
126 -110 115z m68 -90 c-2 -5 -8 -10 -15 -11 -6 -1 -9 4 -6 12 6 16 27 15 21
-1z"/>
<path d="M3330 8234 c0 -8 5 -12 10 -9 6 4 17 1 25 -5 10 -8 15 -9 15 -2 0 10
-31 32 -44 32 -3 0 -6 -7 -6 -16z"/>
<path d="M3350 8195 c7 -9 15 -13 17 -11 7 7 -7 26 -19 26 -6 0 -6 -6 2 -15z"/>
<path d="M3380 8171 c0 -6 4 -13 10 -16 6 -3 7 1 4 9 -7 18 -14 21 -14 7z"/>
<path d="M3415 8170 c3 -5 8 -10 11 -10 2 0 4 5 4 10 0 6 -5 10 -11 10 -5 0
-7 -4 -4 -10z"/>
<path d="M3897 8114 c23 -36 74 -57 108 -44 51 20 64 13 91 -46 14 -31 23 -63
19 -72 -8 -21 -7 -27 3 -27 4 0 13 -4 19 -8 7 -4 22 -3 34 3 22 12 22 21 1
102 -6 25 -6 40 1 47 7 7 5 17 -9 32 -20 22 -41 22 -155 3 -26 -4 -48 0 -77
15 -53 27 -56 26 -35 -5z"/>
<path d="M3147 8042 c-9 -10 -17 -26 -17 -36 0 -16 3 -15 30 4 30 21 35 40 14
47 -6 2 -18 -5 -27 -15z"/>
<path d="M3187 7990 c-3 -11 -1 -23 4 -26 17 -10 9 -34 -15 -45 -25 -12 -41
-45 -25 -54 4 -3 6 -12 2 -20 -8 -22 6 -18 49 12 25 17 37 32 33 41 -3 8 -10
34 -16 58 -13 51 -24 63 -32 34z"/>
<path d="M3520 7920 c0 -5 5 -10 10 -10 6 0 10 5 10 10 0 6 -4 10 -10 10 -5 0
-10 -4 -10 -10z"/>
<path d="M5049 7497 c-36 -28 -47 -87 -15 -87 15 0 46 52 46 79 0 24 -8 26
-31 8z"/>
<path d="M5600 7285 c0 -20 -4 -26 -15 -21 -10 4 -17 -3 -21 -22 -3 -15 -8
-34 -10 -43 -2 -9 4 -23 13 -31 28 -25 81 -3 105 44 17 32 18 41 6 65 -10 21
-22 29 -46 31 -29 3 -32 1 -32 -23z m61 -1 c11 -13 10 -21 -6 -50 -19 -36 -33
-42 -52 -23 -9 9 -6 21 10 50 25 44 29 46 48 23z"/>
<path d="M5678 7073 c6 -2 18 -2 25 0 6 3 1 5 -13 5 -14 0 -19 -2 -12 -5z"/>
<path d="M5630 7010 c-13 -9 -13 -10 0 -9 8 0 24 4 35 9 l20 9 -20 0 c-11 0
-27 -4 -35 -9z"/>
<path d="M5385 7000 c3 -5 8 -10 11 -10 2 0 4 5 4 10 0 6 -5 10 -11 10 -5 0
-7 -4 -4 -10z"/>
<path d="M5588 7003 c7 -3 16 -2 19 1 4 3 -2 6 -13 5 -11 0 -14 -3 -6 -6z"/>
<path d="M5478 6983 c7 -3 16 -2 19 1 4 3 -2 6 -13 5 -11 0 -14 -3 -6 -6z"/>
<path d="M5377 6973 c-4 -3 -7 -17 -7 -30 0 -21 2 -22 20 -11 12 8 18 19 15
28 -5 12 -4 13 6 3 18 -18 49 -16 49 2 0 11 -11 15 -38 15 -21 0 -42 -3 -45
-7z"/>
<path d="M5295 6947 c-4 -10 -5 -21 -1 -24 10 -10 18 4 13 24 -4 17 -4 17 -12
0z"/>
<path d="M5375 6870 c3 -5 8 -10 11 -10 2 0 4 5 4 10 0 6 -5 10 -11 10 -5 0
-7 -4 -4 -10z"/>
<path d="M5315 6836 c19 -92 15 -86 55 -86 21 0 41 -6 43 -12 3 -8 6 -6 6 5 1
21 -3 21 84 -4 111 -32 111 -32 137 -9 22 19 23 20 3 11 -34 -17 -59 -13 -116
16 -43 22 -63 26 -115 24 l-62 -2 -20 43 c-15 32 -19 36 -15 14z"/>
<path d="M5537 6854 c-4 -4 -3 -12 1 -18 4 -6 7 -15 7 -21 0 -5 11 -15 24 -21
24 -13 51 -9 51 7 0 4 -6 6 -12 4 -16 -6 -30 3 -49 32 -9 13 -19 20 -22 17z"/>
<path d="M5753 6810 c-34 -17 -67 -38 -75 -47 -9 -12 -5 -11 17 4 17 11 57 29
90 39 69 20 90 34 54 34 -14 0 -53 -14 -86 -30z"/>
<path d="M5114 6793 c-6 -5 -21 -27 -33 -50 l-21 -42 24 -16 c21 -14 28 -14
46 -3 25 16 53 70 48 95 -3 19 -44 29 -64 16z"/>
<path d="M5972 6752 c-90 -14 -105 -14 -114 -1 -8 11 -9 11 -5 -3 3 -9 -1 -19
-10 -22 -8 -4 -13 -13 -9 -21 3 -8 1 -15 -4 -15 -19 0 -10 -28 14 -47 32 -24
210 -175 216 -183 3 -4 24 -17 47 -30 23 -13 40 -26 38 -30 -5 -8 74 -74 80
-68 6 5 -178 184 -260 253 -105 88 -102 85 -74 78 13 -3 30 -10 36 -15 7 -6
42 -8 77 -6 36 3 118 -3 183 -13 65 -10 136 -20 158 -23 32 -5 26 -1 -30 19
-72 27 -278 65 -352 65 -24 0 -43 3 -43 8 0 12 115 33 235 42 61 5 124 13 140
19 51 16 -207 11 -323 -7z"/>
<path d="M6025 6546 c16 -13 33 -22 38 -19 4 2 6 -1 5 -7 -5 -18 109 -85 124
-73 14 11 55 21 126 30 73 9 46 20 -70 27 -93 5 -114 10 -125 25 -12 19 -30
25 -98 37 l-30 5 30 -25z"/>
<path d="M5422 6470 c0 -14 2 -19 5 -12 2 6 2 18 0 25 -3 6 -5 1 -5 -13z"/>
<path d="M5190 6460 c0 -5 5 -10 11 -10 5 0 7 5 4 10 -3 6 -8 10 -11 10 -2 0
-4 -4 -4 -10z"/>
<path d="M5433 6395 c0 -22 2 -30 4 -17 2 12 2 30 0 40 -3 9 -5 -1 -4 -23z"/>
<path d="M5200 6408 c0 -29 28 -50 51 -37 26 14 18 35 -11 31 -13 -1 -27 3
-32 10 -6 10 -8 9 -8 -4z"/>
<path d="M5110 6360 c-9 -6 -10 -10 -3 -10 6 0 15 5 18 10 8 12 4 12 -15 0z"/>
<path d="M3610 6260 c0 -5 5 -10 11 -10 5 0 7 5 4 10 -3 6 -8 10 -11 10 -2 0
-4 -4 -4 -10z"/>
<path d="M5451 6244 c0 -11 3 -14 6 -6 3 7 2 16 -1 19 -3 4 -6 -2 -5 -13z"/>
<path d="M5461 6196 c-2 -14 38 -139 49 -156 9 -13 10 -13 10 0 0 13 1 13 10
0 13 -20 13 -33 0 -25 -14 9 -12 -1 5 -35 19 -36 29 -40 13 -5 -9 19 -8 29 5
48 13 20 13 24 1 25 -8 1 -20 3 -28 4 -9 1 -25 32 -39 77 -14 42 -25 72 -26
67z"/>
<path d="M2991 6154 c0 -11 3 -14 6 -6 3 7 2 16 -1 19 -3 4 -6 -2 -5 -13z"/>
<path d="M3745 6153 c-20 -20 -19 -24 16 -51 25 -21 31 -22 44 -9 13 13 12 16
-7 20 -21 6 -21 7 -3 27 10 11 14 20 9 21 -5 0 -17 2 -27 4 -9 2 -24 -3 -32
-12z"/>
<path d="M3825 6150 c3 -5 11 -10 16 -10 6 0 7 5 4 10 -3 6 -11 10 -16 10 -6
0 -7 -4 -4 -10z"/>
<path d="M6380 6156 c0 -2 8 -10 18 -17 15 -13 16 -12 3 4 -13 16 -21 21 -21
13z"/>
<path d="M3810 6130 c0 -5 5 -10 11 -10 5 0 7 5 4 10 -3 6 -8 10 -11 10 -2 0
-4 -4 -4 -10z"/>
<path d="M3875 6120 c10 -11 20 -20 23 -20 3 0 -3 9 -13 20 -10 11 -20 20 -23
20 -3 0 3 -9 13 -20z"/>
<path d="M5510 6090 c0 -5 5 -10 11 -10 5 0 7 5 4 10 -3 6 -8 10 -11 10 -2 0
-4 -4 -4 -10z"/>
<path d="M3050 6013 c0 -13 5 -23 10 -23 13 0 13 11 0 30 -8 12 -10 11 -10 -7z"/>
<path d="M6671 5967 c2 -1 13 -9 24 -17 19 -14 19 -14 6 3 -7 9 -18 17 -24 17
-6 0 -8 -1 -6 -3z"/>
<path d="M6735 5950 c3 -5 11 -10 16 -10 6 0 7 5 4 10 -3 6 -11 10 -16 10 -6
0 -7 -4 -4 -10z"/>
<path d="M5560 5933 c0 -13 56 -122 71 -137 17 -18 9 4 -21 62 -37 72 -50 91
-50 75z"/>
<path d="M6744 5922 c3 -6 29 -27 57 -47 28 -20 48 -32 45 -27 -3 6 -29 27
-57 47 -28 20 -48 32 -45 27z"/>
<path d="M6920 5865 c0 -6 68 -45 79 -45 23 0 10 30 -16 35 -55 12 -63 13 -63
10z"/>
<path d="M6678 5838 c6 -25 102 -101 167 -132 l50 -24 20 36 c20 36 16 56 -9
46 -10 -4 -59 24 -123 72 -13 9 -43 18 -67 19 -39 3 -43 1 -38 -17z"/>
<path d="M6910 5795 c0 -1 11 -10 25 -19 19 -13 23 -13 19 -2 -4 12 -44 31
-44 21z"/>
<path d="M7388 5781 c-3 -10 -109 -81 -120 -81 -4 0 -4 8 -1 17 4 10 -11 -1
-34 -22 -22 -22 -37 -42 -32 -43 5 -2 7 -7 5 -11 -4 -6 15 -10 62 -12 12 -1
22 -7 22 -15 0 -18 36 -54 54 -54 8 0 18 -4 21 -10 14 -23 23 -8 13 23 -13 37
-29 51 -40 34 -5 -8 -8 -6 -8 6 0 9 -7 17 -16 17 -27 0 -6 37 52 92 30 28 54
55 54 59 0 12 -27 11 -32 0z"/>
<path d="M5663 5733 c21 -49 96 -173 104 -173 3 0 -5 17 -18 38 -12 20 -38 65
-56 100 -35 64 -52 83 -30 35z"/>
<path d="M6960 5743 c0 -13 29 -38 35 -31 3 3 -4 13 -15 23 -11 10 -20 13 -20
8z"/>
<path d="M6994 5654 c-6 -23 -2 -32 22 -51 16 -12 38 -23 49 -23 18 0 18 1 -3
16 -15 11 -22 24 -20 42 2 15 -1 27 -7 27 -5 0 -15 4 -22 8 -8 5 -15 -1 -19
-19z"/>
<path d="M6878 5619 c-14 -35 31 -78 61 -60 7 5 2 12 -14 19 -14 7 -29 22 -34
34 -5 15 -9 17 -13 7z"/>
<path d="M7140 5610 c0 -5 5 -10 10 -10 6 0 10 5 10 10 0 6 -4 10 -10 10 -5 0
-10 -4 -10 -10z"/>
<path d="M7440 5576 c0 -2 7 -9 15 -16 12 -10 15 -10 15 4 0 9 -7 16 -15 16
-8 0 -15 -2 -15 -4z"/>
<path d="M5780 5530 c6 -11 13 -20 16 -20 2 0 0 9 -6 20 -6 11 -13 20 -16 20
-2 0 0 -9 6 -20z"/>
<path d="M8030 5499 c0 -5 5 -7 10 -4 6 3 10 8 10 11 0 2 -4 4 -10 4 -5 0 -10
-5 -10 -11z"/>
<path d="M7425 5490 c-3 -5 1 -10 10 -10 9 0 13 5 10 10 -3 6 -8 10 -10 10 -2
0 -7 -4 -10 -10z"/>
<path d="M5480 5469 c0 -5 5 -7 10 -4 6 3 10 8 10 11 0 2 -4 4 -10 4 -5 0 -10
-5 -10 -11z"/>
<path d="M7950 5453 c-14 -3 -29 -9 -34 -13 -12 -12 66 0 79 11 9 9 -1 10 -45
2z"/>
<path d="M7630 5384 c1 -28 80 -88 87 -67 2 6 26 8 56 6 46 -3 50 -2 37 11 -8
7 -37 19 -65 25 -64 15 -76 18 -97 26 -10 4 -18 3 -18 -1z"/>
<path d="M5350 5368 c0 -9 5 -20 11 -23 17 -11 20 0 4 21 -13 17 -14 17 -15 2z"/>
<path d="M5740 5330 c0 -5 5 -10 11 -10 5 0 7 5 4 10 -3 6 -8 10 -11 10 -2 0
-4 -4 -4 -10z"/>
<path d="M7890 5319 l-25 -10 32 -20 c17 -11 43 -22 56 -25 20 -3 26 1 30 24
6 31 0 43 -12 24 -6 -10 -11 -10 -21 3 -14 17 -25 18 -60 4z"/>
<path d="M5615 5309 c-11 -17 -2 -18 25 -4 24 14 24 14 3 15 -12 0 -25 -5 -28
-11z"/>
<path d="M5280 5271 c0 -31 1 -31 50 -31 39 0 48 3 44 14 -3 8 -18 19 -32 24
-15 6 -35 13 -44 17 -15 6 -18 2 -18 -24z"/>
<path d="M5544 5286 c-10 -8 -17 -16 -14 -19 9 -7 70 13 70 23 0 15 -33 12
-56 -4z"/>
<path d="M5389 5193 c19 -4 21 -7 10 -14 -11 -7 -11 -9 3 -9 9 0 23 -3 31 -6
12 -4 14 0 10 16 -4 16 -8 18 -14 8 -7 -10 -9 -10 -9 0 0 7 -12 11 -27 11 -26
-2 -27 -2 -4 -6z"/>
<path d="M4717 1488 c8 -46 13 -48 13 -5 0 21 -4 37 -10 37 -5 0 -7 -14 -3
-32z"/>
<path d="M4732 1415 c0 -16 2 -22 5 -12 2 9 2 23 0 30 -3 6 -5 -1 -5 -18z"/>
<path d="M4760 1093 c0 -10 -3 -29 -6 -43 -4 -19 -3 -22 5 -9 14 22 21 69 10
69 -5 0 -9 -8 -9 -17z"/>
</g>
</svg>
